<svg width="100%" height="100%" viewBox="0 0 78 18" version="1.1" xmlns="http://www.w3.org/2000/svg" xmlns:xlink="http://www.w3.org/1999/xlink" xml:space="preserve" xmlns:serif="http://www.serif.com/" style="fill-rule:evenodd;clip-rule:evenodd;stroke-linejoin:round;stroke-miterlimit:2;">
    <path d="M0.159,0.654L4.218,0.8L4.218,0.506L4.934,0.946L6.764,0.946L7.718,0.36L10.742,0.36L11.777,1.093L12.493,1.093L12.493,0.36L16.074,0.654L16.074,1.093L16.71,0.506L18.381,0.654L18.779,1.24L18.779,6.299L18.381,6.518L18.381,6.958L18.063,7.398L18.779,8.058L18.779,10.184L18.381,10.551L18.779,10.551L18.779,17.589L18.063,17.149L17.028,17.149L17.347,17.589L14.8,17.589L14.482,17.222L14.164,17.222L14.005,17.516L10.742,17.516L10.106,17.955L9.469,17.516L9.231,17.809L8.594,17.516L8.276,17.955L7.4,17.222L5.57,17.222L4.218,17.076L1.671,17.222L0.637,17.222L0.159,16.929L0.159,15.756L0.079,15.756L0.079,13.703L0.637,13.263L0.637,11.723L0,11.431L0,9.231L0.477,8.938L0.477,8.278L0.159,8.132L0.159,7.545L0.477,7.252L0.079,5.712L0.079,4.246L0.398,3.439L0.398,1.9L0.159,1.606L0.159,0.654ZM49.87,18L50.972,18C53.045,18 54.969,17.394 56.545,16.363C56.526,16.315 56.515,16.265 56.515,16.213C56.516,16.107 56.515,15.995 56.514,15.877C56.504,14.616 56.49,12.745 57.845,11.454C58.632,10.704 59.794,10.769 60.453,10.869L60.456,10.869C60.592,10.266 60.665,9.642 60.665,9.001C60.665,4.034 56.322,0.003 50.972,0.003L49.87,0.003C44.521,0.003 40.177,4.034 40.177,9.001C40.177,9.642 40.25,10.266 40.386,10.869L40.389,10.869C41.049,10.769 42.21,10.704 42.997,11.454C44.352,12.745 44.338,14.616 44.328,15.877C44.327,15.995 44.326,16.107 44.327,16.213C44.327,16.265 44.317,16.315 44.297,16.363C45.874,17.394 47.797,18 49.87,18ZM62.544,0.687L77.711,0.687C77.787,0.687 77.861,0.715 77.915,0.766C77.97,0.816 78,0.885 78,0.956L78,3.581C78,3.653 77.97,3.721 77.915,3.772C77.861,3.822 77.787,3.851 77.711,3.851L72.51,3.851C72.434,3.851 72.36,3.879 72.306,3.93C72.251,3.98 72.221,4.049 72.221,4.121L72.221,17.442C72.221,17.514 72.19,17.583 72.136,17.633C72.082,17.684 72.008,17.712 71.932,17.712L68.197,17.712C68.12,17.712 68.047,17.684 67.992,17.633C67.938,17.583 67.907,17.514 67.907,17.442L67.907,4.121C67.907,4.049 67.877,3.98 67.823,3.93C67.768,3.879 67.695,3.851 67.618,3.851L63.574,3.851C63.453,3.851 63.344,3.78 63.302,3.674C63.105,3.171 62.539,1.729 62.272,1.049C62.239,0.966 62.252,0.874 62.306,0.802C62.361,0.73 62.449,0.687 62.544,0.687ZM35.783,4.945C35.783,5.577 35.649,6.185 35.381,6.768C35.113,7.35 34.764,7.912 34.335,8.453C33.906,8.994 33.424,9.514 32.888,10.014C32.352,10.513 31.825,10.988 31.307,11.437C31.038,11.67 30.748,11.932 30.436,12.224C30.123,12.515 29.823,12.811 29.538,13.11C29.252,13.41 28.997,13.689 28.774,13.947C28.713,14.017 28.659,14.084 28.61,14.147C28.548,14.232 28.541,14.343 28.593,14.434C28.645,14.525 28.746,14.582 28.857,14.583C30.365,14.584 34.843,14.584 36.045,14.584C36.125,14.584 36.201,14.613 36.258,14.666C36.314,14.718 36.346,14.789 36.346,14.864L36.346,17.426C36.346,17.58 36.211,17.706 36.045,17.706L24.225,17.706C24.071,17.706 23.942,17.597 23.926,17.454C23.915,17.322 23.909,17.173 23.909,17.006L23.909,16.407C23.909,15.608 24.047,14.875 24.324,14.209C24.601,13.543 24.963,12.923 25.41,12.349C25.856,11.775 26.361,11.238 26.924,10.738C27.487,10.239 28.045,9.739 28.599,9.24C29.028,8.857 29.43,8.495 29.805,8.153C30.181,7.812 30.511,7.479 30.797,7.155C31.083,6.83 31.307,6.505 31.467,6.181C31.628,5.856 31.709,5.527 31.709,5.194C31.709,4.462 31.485,3.946 31.038,3.646C30.592,3.346 30.038,3.196 29.377,3.196C28.894,3.196 28.443,3.267 28.023,3.409C27.603,3.55 27.219,3.717 26.87,3.908C26.522,4.1 26.223,4.291 25.973,4.483C25.853,4.574 25.747,4.657 25.656,4.732C25.593,4.785 25.508,4.81 25.423,4.801C25.338,4.792 25.261,4.75 25.212,4.685C24.817,4.168 23.937,3.016 23.581,2.55C23.492,2.433 23.511,2.274 23.625,2.179C24.366,1.572 25.215,1.066 26.174,0.662C27.219,0.22 28.34,0 29.538,0C30.627,0 31.566,0.117 32.352,0.35C33.138,0.583 33.786,0.912 34.295,1.336C34.804,1.761 35.18,2.277 35.421,2.884C35.662,3.492 35.783,4.179 35.783,4.945ZM3.82,14.876L5.172,14.876L5.809,14.436L6.525,14.436L7.4,14.143L3.501,10.697L2.467,13.043L2.467,13.703L3.82,14.876ZM15.516,14.73L16.87,11.431L15.358,10.404L14.721,10.404L14.561,10.037L5.57,4.539L5.57,4.246L3.501,3.073L2.467,3.586L1.99,3.586L1.99,3.879L10.663,11.871L10.663,12.31L13.368,14.803L15.516,14.803L15.516,14.73ZM48.789,10.214L54.662,4.306C54.803,4.167 55.029,4.167 55.169,4.306L56.014,5.142C56.154,5.28 56.154,5.504 56.014,5.642L49.043,12.636C48.903,12.775 48.676,12.775 48.536,12.636L44.801,8.938C44.734,8.872 44.696,8.781 44.696,8.688C44.696,8.593 44.734,8.503 44.801,8.436L45.646,7.601C45.786,7.464 46.012,7.464 46.153,7.601L48.789,10.214ZM14.88,6.592L15.039,5.272L15.358,4.685L15.358,4.099L14.005,3.293L11.299,4.099L14.88,6.592Z" style="fill:white;"/>
</svg>
